<svg width="18" height="19" viewBox="0 0 18 19" fill="none" xmlns="http://www.w3.org/2000/svg">
<path d="M9.18363 7.88214V11.3676H14.1262C13.9091 12.4885 13.2578 13.4376 12.281 14.0758L15.2616 16.3422C16.9981 14.7713 18 12.464 18 9.72314C18 9.08497 17.9416 8.47128 17.833 7.88224L9.18363 7.88214Z" fill="#4285F4"/>
<path d="M4.03678 11.2315L3.36456 11.7358L0.985088 13.5522C2.49623 16.4894 5.59344 18.5185 9.18343 18.5185C11.663 18.5185 13.7418 17.7167 15.2614 16.3422L12.2808 14.0758C11.4626 14.6158 10.419 14.9431 9.18343 14.9431C6.79566 14.9431 4.76694 13.364 4.04054 11.2367L4.03678 11.2315Z" fill="#34A853"/>
<path d="M0.985096 5.48489C0.358964 6.69575 0 8.06214 0 9.51848C0 10.9748 0.358964 12.3412 0.985096 13.5521C0.985096 13.5602 4.04084 11.2284 4.04084 11.2284C3.85717 10.6884 3.7486 10.1157 3.7486 9.51838C3.7486 8.92103 3.85717 8.34834 4.04084 7.80834L0.985096 5.48489Z" fill="#FBBC05"/>
<path d="M9.18362 4.10216C10.5362 4.10216 11.7384 4.56033 12.6985 5.44398L15.3284 2.86674C13.7337 1.4104 11.6633 0.518524 9.18362 0.518524C5.59363 0.518524 2.49623 2.53943 0.985088 5.4849L4.04074 7.80854C4.76705 5.68124 6.79585 4.10216 9.18362 4.10216Z" fill="#EA4335"/>
</svg>
